<svg width="18" height="18" viewBox="0 0 18 18" fill="none" xmlns="http://www.w3.org/2000/svg">
<path d="M9.07749 2.29679e-05C9.37224 2.29679e-05 9.66249 0.019148 9.93249 0.064148C10.1985 0.0984144 10.4609 0.156395 10.7166 0.237398C10.9716 0.313898 11.2244 0.412523 11.4749 0.533273C11.719 0.649148 11.9699 0.790898 12.2207 0.945023C12.6449 1.21502 13.0622 1.43327 13.4875 1.60765C14.3244 1.94339 15.2098 2.1428 16.1099 2.19827C16.5651 2.23202 17.0365 2.24927 17.524 2.25002V6.75002C17.524 7.60427 17.4149 8.41652 17.1966 9.18677C16.9869 9.9475 16.689 10.6811 16.309 11.3726C15.9306 12.0633 15.4828 12.7135 14.9725 13.3133C14.4547 13.927 13.8938 14.5029 13.294 15.0368C12.6857 15.5715 12.046 16.0693 11.3781 16.5274C10.7091 16.9924 10.0364 17.421 9.35986 17.8133L9.08986 17.9741L8.81986 17.8133C8.1259 17.4116 7.44812 16.9827 6.78811 16.5274C6.11667 16.0742 5.47659 15.5762 4.87224 15.0368C4.27283 14.5029 3.71228 13.9269 3.19486 13.3133C2.68631 12.7107 2.23651 12.0608 1.85161 11.3726C1.4784 10.6779 1.18083 9.94505 0.963986 9.18677C0.745806 8.39306 0.637547 7.57316 0.642236 6.75002V2.25002C1.12974 2.24927 1.60149 2.23202 2.05749 2.19827C2.50717 2.1677 2.95393 2.1034 3.39399 2.0059C3.82486 1.90915 4.25574 1.7809 4.67986 1.60765C5.11986 1.42979 5.54179 1.21016 5.93986 0.951773C6.43486 0.630023 6.93661 0.392648 7.43161 0.236273C7.96475 0.0730236 8.51995 -0.00667094 9.07749 2.29679e-05ZM16.3922 3.3559C15.5407 3.31422 14.6971 3.17185 13.879 2.93177C13.0655 2.68849 12.2906 2.33133 11.5772 1.8709C11.2071 1.62858 10.8055 1.43818 10.3836 1.30502C9.96194 1.17785 9.52353 1.1149 9.08311 1.11827C8.63942 1.11557 8.19776 1.1785 7.77249 1.30502C7.35011 1.43421 6.94906 1.62488 6.58224 1.8709C5.86738 2.33338 5.09051 2.69208 4.27486 2.93627C3.47761 3.16802 2.64174 3.30977 1.76724 3.36152V6.75565C1.76724 7.5004 1.86399 8.2159 2.05749 8.90215C2.25479 9.58349 2.52642 10.2411 2.86749 10.863C3.21278 11.4914 3.61979 12.0838 4.08249 12.6315C4.55161 13.1839 5.05224 13.698 5.59224 14.1863C6.13224 14.6745 6.69811 15.1268 7.28986 15.543C7.88761 15.96 8.48536 16.3414 9.08311 16.6871C9.69507 16.3315 10.2915 15.9498 10.8707 15.543C11.4671 15.1279 12.036 14.6747 12.574 14.1863C13.114 13.698 13.6157 13.1839 14.0849 12.6315C14.5476 12.0838 14.9546 11.4914 15.2999 10.863C15.6392 10.2417 15.9068 9.58389 16.0975 8.90215C16.2971 8.20426 16.3963 7.48151 16.3922 6.75565V3.3559Z" fill="#08227A"/>
</svg>
