<svg width="29" height="41" viewBox="0 0 29 41" fill="none" xmlns="http://www.w3.org/2000/svg">
<path d="M14.4998 9.729C15.7983 9.729 17.0436 10.2448 17.9617 11.163C18.8799 12.0811 19.3957 13.3264 19.3957 14.6248C19.3957 15.2678 19.269 15.9044 19.023 16.4984C18.777 17.0924 18.4163 17.6321 17.9617 18.0867C17.5071 18.5413 16.9674 18.902 16.3734 19.148C15.7794 19.394 15.1428 19.5207 14.4998 19.5207C13.2014 19.5207 11.9561 19.0049 11.038 18.0867C10.1198 17.1686 9.604 15.9233 9.604 14.6248C9.604 13.3264 10.1198 12.0811 11.038 11.163C11.9561 10.2448 13.2014 9.729 14.4998 9.729ZM14.4998 0.916504C18.1355 0.916504 21.6223 2.36077 24.1931 4.93158C26.7639 7.50239 28.2082 10.9892 28.2082 14.6248C28.2082 24.9061 14.4998 40.0832 14.4998 40.0832C14.4998 40.0832 0.791504 24.9061 0.791504 14.6248C0.791504 10.9892 2.23577 7.50239 4.80658 4.93158C7.37739 2.36077 10.8642 0.916504 14.4998 0.916504ZM14.4998 4.83317C11.9029 4.83317 9.41238 5.86479 7.57608 7.70108C5.73979 9.53738 4.70817 12.0279 4.70817 14.6248C4.70817 16.5832 4.70817 20.4998 14.4998 33.6403C24.2915 20.4998 24.2915 16.5832 24.2915 14.6248C24.2915 12.0279 23.2599 9.53738 21.4236 7.70108C19.5873 5.86479 17.0967 4.83317 14.4998 4.83317Z" fill="#F1831B"/>
</svg>
