<svg width="49" height="49" viewBox="0 0 49 49" fill="none" xmlns="http://www.w3.org/2000/svg">
<path d="M8.29633 8.08895L17.2657 8.18453L20.0793 15.4428L15.4018 18.4896C15.1263 18.6692 14.8994 18.914 14.7413 19.2022C14.5831 19.4905 14.4986 19.8134 14.4951 20.1422C14.4991 20.33 14.4951 20.1442 14.4951 20.1442L14.4946 20.1861C14.4947 20.2755 14.4977 20.3648 14.5038 20.4539C14.5127 20.6192 14.5336 20.8392 14.5667 21.1139C14.6388 21.6541 14.7807 22.3988 15.0631 23.2769C15.6316 25.0411 16.758 27.3286 18.9755 29.5939C21.1929 31.8591 23.456 33.034 25.2056 33.64C26.0795 33.941 26.819 34.0967 27.3615 34.1824C27.6676 34.2302 27.9761 34.2602 28.2856 34.2722L28.3115 34.2744L28.3275 34.2746C28.3275 34.2746 28.5514 34.265 28.3295 34.2746C28.7004 34.2784 29.065 34.1788 29.3825 33.9871C29.7 33.7953 29.9579 33.519 30.1272 33.189L31.4941 30.5264L40.3399 32.0991L40.2479 40.7289C36.0244 41.2932 24.6275 41.7731 15.7735 32.7283C6.91944 23.6836 7.64014 12.2974 8.29633 8.08895ZM18.6259 21.1572L22.2612 18.7905C23.0292 18.2899 23.6018 17.5405 23.8828 16.668C24.1638 15.7954 24.1362 14.8527 23.8047 13.9981L20.9911 6.73983C20.7024 5.99535 20.1972 5.35447 19.5408 4.89985C18.8843 4.44523 18.1067 4.19772 17.3083 4.18927L8.23503 4.09257C6.41918 4.07322 4.69777 5.31553 4.37913 7.28202C3.65221 11.7535 2.59033 24.972 12.9187 35.5229C23.2471 46.0738 36.4853 45.2918 40.9712 44.6624C42.944 44.3837 44.2227 42.6912 44.2421 40.8753L44.3351 32.1417C44.3453 31.1959 44.0197 30.2772 43.4162 29.549C42.8126 28.8208 41.9703 28.3303 41.0391 28.1648L32.1933 26.5941C31.352 26.4444 30.4849 26.5684 29.7192 26.9479C28.9536 27.3274 28.3298 27.9423 27.9394 28.7024L27.2335 30.0794C26.9898 30.0161 26.7487 29.9435 26.5105 29.862C25.2764 29.4372 23.5655 28.5719 21.8302 26.7993C20.095 25.0267 19.2663 23.2977 18.868 22.0528C18.7742 21.7581 18.694 21.4593 18.6279 21.1572L18.6259 21.1572Z" fill="#F39209"/>
</svg>
