<svg width="18" height="24" viewBox="0 0 18 24" fill="none" xmlns="http://www.w3.org/2000/svg">
<path d="M17.9614 8.37702C17.9619 6.95194 17.577 5.55087 16.8438 4.30941C16.1107 3.06796 15.0541 2.02818 13.7765 1.29073C12.4988 0.553277 11.0433 0.143129 9.55088 0.0999862C8.05843 0.056844 6.57959 0.38217 5.25751 1.04447C3.93543 1.70677 2.81489 2.68362 2.00436 3.88045C1.19383 5.07728 0.720756 6.45355 0.630941 7.87605C0.541127 9.29854 0.83761 10.7191 1.49169 12.0001C2.14577 13.2812 3.1353 14.3794 4.36448 15.1884L0.615236 21.385L3.41044 21.4949L4.90717 23.75L9.20158 16.6501L9.28831 16.6548C9.33168 16.6572 9.34531 16.6513 9.37504 16.6501L13.6695 23.75L15.1959 21.5434L17.9614 21.385L14.2121 15.1884C15.3689 14.4283 16.3146 13.4111 16.9678 12.2245C17.6209 11.0378 17.9619 9.71742 17.9614 8.37702ZM3.09326 8.37702C3.09326 7.2076 3.45659 6.06444 4.13731 5.0921C4.81803 4.11976 5.78557 3.36192 6.91757 2.9144C8.04957 2.46688 9.29518 2.34979 10.4969 2.57793C11.6986 2.80608 12.8025 3.36921 13.6689 4.19611C14.5353 5.02302 15.1253 6.07656 15.3643 7.22351C15.6034 8.37046 15.4807 9.55931 15.0118 10.6397C14.5429 11.7201 13.7489 12.6436 12.7301 13.2932C11.7113 13.9429 10.5136 14.2897 9.28831 14.2897C7.64528 14.2897 6.06954 13.6668 4.90775 12.5579C3.74595 11.4491 3.09326 9.94516 3.09326 8.37702Z" fill="#FF9604"/>
</svg>
