<svg width="14" height="18" viewBox="0 0 14 18" fill="none" xmlns="http://www.w3.org/2000/svg">
<path d="M3.41808 0.374298C3.89469 0.214344 4.41172 0.222455 4.88308 0.397284C5.35445 0.572112 5.75172 0.903109 6.00876 1.33517L6.09519 1.49648L6.87312 3.09126C7.10879 3.57542 7.19714 4.11811 7.1272 4.65202C7.05726 5.18593 6.83211 5.68756 6.47969 6.09468L6.33796 6.24434L5.22434 7.34963C5.02369 7.55174 5.20218 8.30448 5.98993 9.57651C6.69889 10.7211 7.26328 11.2484 7.53357 11.2697L7.58085 11.2683L7.63878 11.2555L9.87135 10.4963C10.1714 10.394 10.4945 10.3803 10.8022 10.4569C11.1098 10.5334 11.3888 10.697 11.6059 10.9279L11.7099 11.0513L13.2659 13.0721C13.5709 13.4682 13.7318 13.9563 13.7223 14.4561C13.7128 14.9559 13.5333 15.4375 13.2135 15.8217L13.0836 15.9644L12.5052 16.548C11.9858 17.0713 11.327 17.4345 10.6072 17.5943C9.88736 17.7542 9.13678 17.7039 8.44468 17.4496C6.29065 16.6579 4.2971 14.7585 2.44707 11.7717C0.593505 8.77735 -0.219934 6.14256 0.0361339 3.85654C0.113644 3.1655 0.376864 2.50836 0.79784 1.9549C1.21882 1.40144 1.78183 0.972326 2.42709 0.713133L2.63711 0.636196L3.41808 0.374298Z" fill="#F1831B"/>
</svg>
