<svg width="26" height="26" viewBox="0 0 26 26" fill="none" xmlns="http://www.w3.org/2000/svg">
<path d="M13.0002 22.6922C15.5707 22.6922 18.036 21.6711 19.8536 19.8534C21.6713 18.0357 22.6925 15.5705 22.6925 12.9999C22.6925 10.4293 21.6713 7.96407 19.8536 6.14641C18.036 4.32875 15.5707 3.3076 13.0002 3.3076C10.4296 3.3076 7.96431 4.32875 6.14665 6.14641C4.32899 7.96407 3.30784 10.4293 3.30784 12.9999C3.30784 15.5705 4.32899 18.0357 6.14665 19.8534C7.96431 21.6711 10.4296 22.6922 13.0002 22.6922ZM13.0002 0.884521C14.5912 0.884521 16.1666 1.1979 17.6365 1.80675C19.1064 2.41561 20.442 3.30802 21.567 4.43304C22.692 5.55805 23.5845 6.89364 24.1933 8.36355C24.8022 9.83346 25.1155 11.4089 25.1155 12.9999C25.1155 16.2131 23.8391 19.2947 21.567 21.5668C19.2949 23.8389 16.2134 25.1153 13.0002 25.1153C6.30034 25.1153 0.884766 19.6634 0.884766 12.9999C0.884766 9.78671 2.1612 6.70511 4.43328 4.43304C6.70536 2.16096 9.78695 0.884521 13.0002 0.884521ZM13.6059 6.94221V13.3028L19.0578 16.5376L18.1492 18.0278L11.7886 14.2114V6.94221H13.6059Z" fill="#FF9604"/>
</svg>
