<svg width="255" height="202" viewBox="0 0 255 202" fill="none" xmlns="http://www.w3.org/2000/svg">
<path d="M202.596 134.993L231.766 152.429L248.302 122.759" stroke="#42BE08" stroke-width="9" stroke-linecap="round" stroke-linejoin="round"/>
<path d="M29.7974 36.2238C30.6923 39.4693 30.2874 42.9104 28.6718 45.79C27.0562 48.6695 24.3622 50.7517 21.1826 51.5785C18.003 52.4052 14.5981 51.9088 11.717 50.1985C8.83591 48.4881 6.71462 45.7039 5.81978 42.4584C4.92495 39.2128 5.32987 35.7717 6.94546 32.8922C8.56106 30.0126 11.255 27.9304 14.4346 27.1037C17.6143 26.2769 21.0191 26.7733 23.9002 28.4836C26.7813 30.194 28.9026 32.9782 29.7974 36.2238Z" fill="#42BE08" stroke="#42BE08" stroke-width="9" stroke-linejoin="round"/>
<path d="M11.7417 33.0061C13.1188 38.0035 59.4129 84.774 63.9137 87.3911C68.4145 90.0082 73.7452 90.7503 78.7332 89.4541L186.874 61.3513C191.862 60.0551 197.193 60.7972 201.694 63.4143C206.194 66.0315 209.497 70.3093 210.874 75.3067L231.644 150.678" stroke="#42BE08" stroke-width="9" stroke-linecap="round" stroke-linejoin="round"/>
</svg>
