<svg width="20" height="16" viewBox="0 0 20 16" fill="none" xmlns="http://www.w3.org/2000/svg">
<path d="M17.3335 4.33333L10.0002 8.91667L2.66683 4.33333V2.5L10.0002 7.08333L17.3335 2.5M17.3335 0.666664H2.66683C1.64933 0.666664 0.833496 1.4825 0.833496 2.5V13.5C0.833496 13.9862 1.02665 14.4525 1.37047 14.7964C1.71428 15.1402 2.1806 15.3333 2.66683 15.3333H17.3335C17.8197 15.3333 18.286 15.1402 18.6299 14.7964C18.9737 14.4525 19.1668 13.9862 19.1668 13.5V2.5C19.1668 2.01377 18.9737 1.54745 18.6299 1.20364C18.286 0.859818 17.8197 0.666664 17.3335 0.666664Z" fill="#F1831B"/>
</svg>
