<svg width="130" height="138" viewBox="0 0 130 138" fill="none" xmlns="http://www.w3.org/2000/svg">
<path d="M65.2648 3.98527e-05C67.5138 3.98527e-05 69.7285 0.145969 71.7887 0.489331C73.8184 0.750794 75.8207 1.1932 77.7717 1.81128C79.7175 2.39499 81.646 3.14753 83.5574 4.06888C85.4201 4.95304 87.3344 6.03463 89.2486 7.21065C92.4848 9.27082 95.6695 10.9361 98.9143 12.2667C105.3 14.8285 112.056 16.35 118.924 16.7733C122.397 17.0308 125.994 17.1624 129.714 17.1682V51.5044C129.714 58.0225 128.881 64.2202 127.216 70.0974C125.616 75.902 123.343 81.4996 120.443 86.7763C117.556 92.0458 114.139 97.0073 110.245 101.584C106.294 106.266 102.014 110.661 97.4378 114.735C92.7968 118.815 87.9151 122.613 82.8192 126.108C77.7145 129.656 72.5812 132.927 67.4194 135.92L65.3592 137.148L63.299 135.92C58.0039 132.855 52.8323 129.582 47.7962 126.108C42.6729 122.65 37.789 118.85 33.1776 114.735C28.6039 110.661 24.3268 106.266 20.3787 101.584C16.4983 96.9857 13.0663 92.0274 10.1294 86.7763C7.2817 81.4749 5.0111 75.8833 3.35655 70.0974C1.69177 64.0412 0.865724 57.7852 0.901505 51.5044V17.1682C4.62126 17.1624 8.22084 17.0308 11.7002 16.7733C15.1315 16.54 18.5404 16.0494 21.8981 15.3054C25.1858 14.5672 28.4735 13.5886 31.7097 12.2667C35.067 10.9096 38.2864 9.23374 41.3238 7.26215C45.1008 4.80711 48.9293 2.99588 52.7063 1.80269C56.7743 0.557054 61.0106 -0.0510365 65.2648 3.98527e-05ZM121.078 25.6063C114.581 25.2883 108.144 24.202 101.902 22.3701C95.6947 20.5138 89.7817 17.7885 84.3385 14.2753C81.5144 12.4264 78.4499 10.9736 75.2309 9.95754C72.0134 8.9872 68.6682 8.50683 65.3077 8.53259C61.9222 8.51196 58.5522 8.99214 55.3073 9.95754C52.0844 10.9433 49.0243 12.3982 46.2253 14.2753C40.7707 17.8042 34.843 20.5411 28.6194 22.4044C22.5362 24.1727 16.1582 25.2543 9.48556 25.6492V51.5473C9.48556 57.2299 10.2238 62.6894 11.7002 67.9257C13.2057 73.1245 15.2783 78.142 17.8808 82.8877C20.5154 87.6823 23.621 92.2027 27.1516 96.3818C30.7311 100.597 34.551 104.52 38.6714 108.245C42.7917 111.97 47.1095 115.421 51.6247 118.597C56.1857 121.779 60.7467 124.689 65.3077 127.327C69.9771 124.614 74.528 121.701 78.9477 118.597C83.4982 115.43 87.8393 111.972 91.944 108.245C96.0644 104.52 99.8929 100.597 103.472 96.3818C107.003 92.2027 110.109 87.6823 112.743 82.8877C115.332 78.1472 117.374 73.1276 118.829 67.9257C120.352 62.6006 121.109 57.0858 121.078 51.5473V25.6063Z" fill="#003B9B"/>
<path fill-rule="evenodd" clip-rule="evenodd" d="M100.49 40.4225L96.713 37.1777L93.2279 37.4782L55.8014 81.6689L43.0541 63.4707L39.6204 62.887L35.646 65.7283L35.0537 69.1619L51.4407 92.5621L53.3034 93.5922L57.2263 93.8325L59.235 92.9569L100.739 43.8991L100.49 40.4225Z" fill="#003B9B"/>
</svg>
