<svg width="28" height="28" viewBox="0 0 28 28" fill="none" xmlns="http://www.w3.org/2000/svg">
<path d="M19.8335 9.91666C20.8 9.91666 21.5835 9.13316 21.5835 8.16666C21.5835 7.20017 20.8 6.41666 19.8335 6.41666C18.867 6.41666 18.0835 7.20017 18.0835 8.16666C18.0835 9.13316 18.867 9.91666 19.8335 9.91666Z" fill="white"/>
<path d="M18.6667 3.5C21.8867 3.5 24.5 6.11333 24.5 9.33333V18.6667C24.5 21.8867 21.8867 24.5 18.6667 24.5H9.33333C6.11333 24.5 3.5 21.8867 3.5 18.6667V9.33333C3.5 6.11333 6.11333 3.5 9.33333 3.5H14H18.6667Z" stroke="white" stroke-width="2" stroke-linecap="round" stroke-linejoin="round"/>
<path d="M14.0002 9.33334C16.5785 9.33334 18.6668 11.4217 18.6668 14C18.6668 16.5783 16.5785 18.6667 14.0002 18.6667C11.4218 18.6667 9.3335 16.5783 9.3335 14C9.3335 11.4217 11.4218 9.33334 14.0002 9.33334Z" stroke="white" stroke-width="2" stroke-linecap="round" stroke-linejoin="round"/>
</svg>
