<svg width="16" height="20" viewBox="0 0 16 20" fill="none" xmlns="http://www.w3.org/2000/svg">
<path fill-rule="evenodd" clip-rule="evenodd" d="M7.32334 19.2895C7.32334 19.2895 0.666504 13.6832 0.666504 8.16667C0.666504 6.22175 1.43912 4.35649 2.81439 2.98122C4.18965 1.60595 6.05492 0.833336 7.99984 0.833336C9.94476 0.833336 11.81 1.60595 13.1853 2.98122C14.5606 4.35649 15.3332 6.22175 15.3332 8.16667C15.3332 13.6832 8.67634 19.2895 8.67634 19.2895C8.306 19.6305 7.69642 19.6268 7.32334 19.2895ZM7.99984 11.375C8.42116 11.375 8.83836 11.292 9.22761 11.1308C9.61687 10.9696 9.97055 10.7332 10.2685 10.4353C10.5664 10.1374 10.8027 9.7837 10.964 9.39445C11.1252 9.00519 11.2082 8.58799 11.2082 8.16667C11.2082 7.74535 11.1252 7.32815 10.964 6.93889C10.8027 6.54964 10.5664 6.19596 10.2685 5.89804C9.97055 5.60011 9.61687 5.36379 9.22761 5.20256C8.83836 5.04132 8.42116 4.95834 7.99984 4.95834C7.14893 4.95834 6.33288 5.29636 5.7312 5.89804C5.12952 6.49972 4.7915 7.31577 4.7915 8.16667C4.7915 9.01757 5.12952 9.83362 5.7312 10.4353C6.33288 11.037 7.14893 11.375 7.99984 11.375Z" fill="#F1831B"/>
</svg>
