<svg width="26" height="21" viewBox="0 0 26 21" fill="none" xmlns="http://www.w3.org/2000/svg">
<path d="M25.2035 3C24.3052 3.40833 23.3369 3.67666 22.3335 3.805C23.3602 3.18666 24.1535 2.20666 24.5269 1.02833C23.5585 1.61166 22.4852 2.02 21.3535 2.25333C20.4319 1.25 19.1369 0.666664 17.6669 0.666664C14.9252 0.666664 12.6852 2.90666 12.6852 5.67166C12.6852 6.06833 12.7319 6.45333 12.8135 6.815C8.66021 6.605 4.96187 4.61 2.50021 1.58833C2.06854 2.32333 1.82354 3.18666 1.82354 4.09666C1.82354 5.835 2.69854 7.375 4.05187 8.25C3.22354 8.25 2.45354 8.01666 1.77688 7.66666V7.70166C1.77688 10.1283 3.50354 12.1583 5.79021 12.6133C5.05619 12.8151 4.28525 12.8431 3.53854 12.695C3.85542 13.6896 4.476 14.5598 5.31306 15.1834C6.15012 15.807 7.16156 16.1526 8.20521 16.1717C6.43616 17.5723 4.24322 18.3293 1.98687 18.3183C1.59021 18.3183 1.19354 18.295 0.796875 18.2483C3.01354 19.6717 5.65021 20.5 8.47354 20.5C17.6669 20.5 22.7185 12.87 22.7185 6.255C22.7185 6.03333 22.7185 5.82333 22.7069 5.60166C23.6869 4.90166 24.5269 4.015 25.2035 3Z" fill="white"/>
</svg>
